<?xml version="1.0" encoding="UTF-8"?>
<!DOCTYPE svg PUBLIC "-//W3C//DTD SVG 1.1//EN" "http://www.w3.org/Graphics/SVG/1.1/DTD/svg11.dtd">
<svg version="1.1" xmlns="http://www.w3.org/2000/svg" xmlns:xlink="http://www.w3.org/1999/xlink" x="0" y="0" width="500" height="200" viewBox="0, 0, 500, 200">
  <g id="Image">
    <path d="M104.573,49.665 L104.573,29.587 L104.1,30.084 L101.117,33.241 L97.977,30.062 L97.754,29.84 L97.754,49.665 z" fill="#81D5E2"/>
    <path d="M122.01,49.665 L122.01,29.587 L121.551,30.084 L118.552,33.241 L115.412,30.062 L115.201,29.84 L115.201,49.665 z" fill="#81D5E2"/>
    <path d="M87.107,49.665 L87.107,29.587 L86.65,30.084 L83.671,33.241 L80.526,30.062 L80.304,29.84 L80.304,49.665 z" fill="#81D5E2"/>
    <path d="M154.291,55.525 L46.108,55.525 C24.365,55.525 37.496,74.058 37.496,74.058 C43.19,81.105 48.339,83.553 52.905,83.04 C57.518,82.514 61.843,78.985 65.696,74.148 L67.989,71.272 L70.068,74.334 C71.411,76.315 72.879,77.997 74.432,79.305 C77.127,81.598 80.088,82.857 83.132,82.98 C86.195,83.096 89.395,82.067 92.555,79.753 C94.445,78.378 96.307,76.546 98.106,74.262 L100.59,71.098 L102.592,74.589 C103.979,77.003 105.646,79.027 107.499,80.539 C109.71,82.368 112.199,83.461 114.835,83.665 C117.479,83.875 120.311,83.186 123.169,81.399 C125.617,79.872 128.096,77.567 130.52,74.376 L132.507,71.758 L134.683,74.188 C139.961,80.071 144.862,82.678 149.445,82.532 C154.039,82.373 158.572,79.464 163.066,74.311 C163.066,74.311 178.723,55.525 154.291,55.525" fill="#81D5E2"/>
    <path d="M84.014,8.389 C83.489,16.148 92.525,25.446 84.565,26.862 C87.51,25.617 83.262,19.553 83.262,19.553 C83.262,19.553 78.929,25.704 82.044,26.884 C73.947,25.63 84.014,8.389 84.014,8.389" fill="#ED634B"/>
    <path d="M166.641,82.368 C161.43,88.405 156.25,91.442 150.817,91.637 L150.299,91.643 C144.65,91.643 139.185,88.577 133.617,82.274 C131.232,85.427 128.688,87.919 126.054,89.693 C122.854,91.843 119.547,92.925 116.209,92.925 C115.802,92.925 115.39,92.907 114.951,92.882 C111.433,92.581 108.036,91.033 105.087,88.419 C103.268,86.797 101.627,84.8 100.187,82.445 C98.528,84.529 96.79,86.28 94.985,87.696 C91.046,90.81 86.897,92.3 82.686,92.125 C78.644,91.962 74.69,90.183 71.212,87.003 C69.77,85.68 68.384,84.079 67.096,82.24 C62.335,88.224 57.409,91.556 52.415,92.158 C46.161,92.907 39.96,89.48 34.012,82.039 C33.949,82.124 33.88,82.198 33.822,82.274 L33.822,145.092 C33.822,152.344 39.606,159.984 46.734,159.984 L56.277,159.984 C51.581,177.629 35.245,187.389 34.933,188.85 C34.457,191.096 67.484,179.959 95.43,159.984 L112.37,159.984 L154.32,159.984 C161.46,159.984 167.236,152.344 167.236,145.092 L167.236,83.096 C167.037,82.856 166.837,82.617 166.641,82.368" fill="#7C4B22"/>
    <path d="M102.006,8.389 C101.463,16.148 110.513,25.446 102.547,26.862 C105.494,25.617 101.249,19.553 101.249,19.553 C101.249,19.553 96.921,25.704 100.03,26.884 C91.927,25.63 102.006,8.389 102.006,8.389" fill="#ED634B"/>
    <path d="M119.434,8.389 C118.905,16.148 127.938,25.446 119.967,26.862 C122.93,25.617 118.682,19.553 118.682,19.553 C118.682,19.553 114.347,25.704 117.455,26.884 C109.353,25.63 119.434,8.389 119.434,8.389" fill="#ED634B"/>
  </g>
  <g id="Birthday_Text">
    <path d="M255.607,40.154 C253.457,51.027 264.552,65.798 253.048,66.361 C257.432,65.132 252.525,55.794 252.525,55.794 C252.525,55.794 245.287,63.699 249.482,65.934 C238.262,62.7 255.607,40.154 255.607,40.154" fill="#ED634B"/>
    <path d="M226.548,74.742 C233.006,71.221 237.09,65.248 237.09,58.84 C237.09,47.552 225.207,42.408 214.168,42.408 C205.34,42.408 197.131,45.066 190.422,50.098 C182.758,55.916 178.181,64.135 178.181,72.081 C178.181,81.7 184.507,88.682 193.227,88.682 L194.563,88.682 L195.372,84.675 L194.017,84.209 C187.123,81.845 186.381,74.152 186.381,70.956 C186.381,64.838 189.127,59.13 194.11,54.893 C198.937,50.795 205.742,48.445 212.781,48.445 C219.893,48.445 228.198,51.438 228.198,59.879 C228.198,68.364 220.098,73.177 212.479,73.388 L210.966,73.431 L210.722,78.389 L212.438,78.389 C222.903,78.389 229.411,83.696 229.411,92.24 C229.411,102.06 220.387,106.535 212.004,106.535 C205.395,106.535 204.899,104.025 204.899,100.204 C204.899,92.903 207.957,77.247 209.113,71.333 C209.496,69.207 209.933,67.092 210.32,65.221 C211.001,61.922 211.389,60.007 211.389,59.013 C211.389,56.059 209.4,55.737 208.545,55.737 C206.775,55.737 204.194,57.095 203.075,57.813 L202.446,58.215 L202.341,58.957 C201.464,65.175 200.871,68.819 198.63,80.969 C197.013,90.016 196.008,99.11 196.008,104.7 C196.008,110.869 198.549,111.792 200.062,111.792 C200.998,111.792 201.964,111.47 202.855,111.101 C204.272,111.77 206.736,112.567 210.447,112.567 C221.855,112.567 238.734,105.664 238.734,90.855 C238.734,83.314 234.001,77.263 226.548,74.742" fill="#81D5E2"/>
    <path d="M407.646,96.806 C405.119,103.977 402.671,106.535 401.222,106.535 C399.543,106.535 397.75,103.1 397.75,96.74 C397.75,90.986 399.373,84.485 401.708,80.838 C403.459,79.212 405.568,78.39 407.974,78.39 C409.572,78.39 411.119,78.74 412.438,79.386 C410.924,86.181 409.155,92.618 407.646,96.806 M369.751,96.713 C366.353,106.258 363.627,106.535 363.328,106.535 C361.538,106.535 359.684,102.742 359.684,96.396 C359.684,90.277 361.242,84.597 363.817,81.001 C365.405,79.341 367.687,78.39 370.079,78.39 C371.583,78.39 373.081,78.744 374.257,79.368 C373.172,85.482 371.513,91.891 369.751,96.713 M330.458,50.506 C331.917,52.492 332.797,55.364 332.797,58.406 C332.797,64.007 329.785,70.549 324.616,73.274 C325.778,66.391 327.843,58.349 330.458,50.506 M457.724,72.174 C456.08,72.174 453.8,73.312 452.712,73.982 L452.064,74.382 L451.954,75.137 C451.145,80.741 449.465,88.047 447.685,93.735 C444.12,104.868 441.276,106.535 439.899,106.535 C438.182,106.535 437.031,103.852 437.031,99.859 C437.031,96.423 437.82,92.387 438.585,88.495 C439.302,84.864 439.975,81.438 439.975,78.658 C439.975,72.642 437.067,72.174 436.179,72.174 C434.383,72.174 432.111,73.737 431.216,74.41 L430.177,75.186 L430.703,76.374 C431.013,77.076 431.168,78.248 431.168,79.871 C431.168,81.67 430.993,83.477 430.741,85.26 C426.75,106.19 422.17,106.877 421.647,106.877 C420.266,106.877 418.865,103.609 418.865,97.346 C418.865,92.169 419.853,84.501 421.508,76.841 L421.755,75.701 L420.766,75.097 C417.41,73.046 414.114,72.09 410.395,72.09 C404.697,72.09 399.497,74.475 395.753,78.791 C391.558,83.594 388.948,90.869 388.948,97.778 C388.948,98.805 389.041,99.726 389.142,100.638 C386.654,106.522 384.607,106.79 384.271,106.79 C382.503,106.79 381.318,102.787 381.318,96.831 C381.318,90.219 382.56,79.95 385.01,66.318 L385.52,63.545 C387.008,55.497 388.411,47.903 388.411,45.515 C388.411,43.307 386.981,42.325 385.567,42.325 C384.025,42.325 381.25,43.609 379.859,44.475 L379.164,44.91 L379.096,45.728 C378.533,52.552 377.386,60.205 375.356,72.437 C374.412,72.216 373.401,72.09 372.417,72.09 C366.932,72.09 361.471,74.689 357.444,79.206 C353.332,83.755 350.877,90.602 350.877,97.524 C350.877,98.621 350.972,99.622 351.085,100.601 C348.592,106.514 346.541,106.79 346.199,106.79 C344.974,106.79 343.163,103.875 343.163,97.61 C343.163,93.282 344.076,88.987 344.958,84.832 C345.293,83.264 345.624,81.703 345.905,80.16 L346.016,79.551 L345.692,79.021 C343.744,75.814 340.725,73.846 337.193,73.484 L337.026,73.467 L336.86,73.484 C330.97,74.085 325.726,79.562 322.384,88.591 C322.734,85.345 323.166,82.036 323.593,79.267 C333.516,76.278 339.612,65.248 339.612,56.332 C339.612,50.12 336.844,44.722 332.555,42.575 C332.132,42.368 331.698,42.151 331.055,42.151 C329.173,42.151 326.149,44.047 324.697,45.328 L324.274,45.91 C322.493,50.074 320.479,55.951 318.754,62.035 C316.3,70.883 314.49,81.055 313.697,89.998 C310.458,103.127 306.009,106.877 303.63,106.877 C301.415,106.877 299.033,103.165 299.033,95.011 C299.033,90.26 299.819,84.79 301.109,77.639 L312.198,77.134 L312.648,76.379 C313.062,75.682 313.308,74.792 313.308,73.987 C313.308,73.163 313.09,72.297 312.877,71.869 L312.39,70.894 L302.289,71.601 C302.556,70.334 302.835,69.042 303.103,67.792 C304.203,62.654 304.83,59.701 304.83,58.578 C304.83,56.931 303.717,55.821 302.068,55.821 C300.541,55.821 298.114,56.735 296.646,57.615 L295.995,58.005 L295.873,58.753 C295.552,60.72 295.137,63.103 294.716,65.52 C294.317,67.795 293.916,70.104 293.577,72.137 L288.759,72.303 L288.406,73.388 C288.252,73.846 288.149,74.538 288.149,75.111 C288.149,75.254 288.153,75.428 288.169,75.619 C287.132,73.45 284.941,72.002 282.259,72.002 C278.277,72.002 274.732,74.981 271.826,80.689 C272.256,78.545 272.556,76.794 272.556,75.452 C272.556,73.035 271.069,72.174 269.796,72.174 C267.826,72.174 264.979,73.77 264.662,73.951 L263.884,74.396 L263.841,75.287 C263.704,77.964 263.161,81.857 262.562,86.015 C258.771,105.195 254.588,106.79 253.358,106.79 C251.641,106.79 250.49,103.796 250.49,99.339 C250.49,96.811 250.787,94.079 251.194,91.359 L251.889,87.246 C252.209,85.528 252.539,83.852 252.853,82.299 C253.058,81.352 253.141,80.493 253.159,79.709 L254.754,70.254 L254.098,70.759 L249.838,73.982 L246.682,69.478 L246.45,69.164 L245.571,74.388 L245.43,74.481 L245.334,75.254 C245.141,76.822 244.9,78.338 244.654,79.824 L244.432,81.143 C244.198,82.471 243.963,83.793 243.726,85.081 C242.81,90.035 241.947,94.71 241.947,99.253 C241.947,109.206 247.208,112.743 251.713,112.743 C255.29,112.743 258.243,110.965 260.737,107.186 C260.988,110.305 261.841,112.653 264.603,112.653 C265.758,112.653 267.474,112.014 268.579,111.42 L269.337,111.017 L269.43,110.164 C270.189,103.243 271.809,95.707 273.769,89.988 C275.738,84.012 277.955,80.727 280.009,80.727 C281.199,80.727 281.624,81.807 281.77,82.729 L282.037,84.374 L283.678,84.069 C286.9,83.482 288.823,81.398 288.823,78.486 C288.823,78.168 288.776,77.866 288.735,77.561 L289.203,78.265 L292.479,78.073 C291.264,84.924 290.312,90.989 290.312,95.879 C290.312,108.388 296.741,112.825 302.244,112.825 C305.722,112.825 309.882,111.061 313.539,104.782 C314.163,110.052 315.8,112.653 318.508,112.653 C319.624,112.653 321.417,112.038 322.972,111.132 L323.731,110.685 L323.774,109.809 C324.05,104.706 324.664,98.004 327.06,91.391 C328.542,87.11 330.478,83.717 332.477,81.872 C333.584,80.909 334.707,80.373 335.642,80.373 C335.994,80.373 336.519,80.373 336.519,82.035 C336.519,83.168 336.204,84.903 335.84,86.908 C335.295,89.917 334.614,93.663 334.614,97.524 C334.614,108.754 340.063,112.743 344.728,112.743 C347.976,112.743 350.77,110.999 353.169,107.413 C355.25,111.064 358.44,112.825 361.511,112.825 C366.274,112.825 370.125,109.301 373.37,101.852 C374.428,108.594 377.895,112.743 382.795,112.743 C386.009,112.743 388.778,111.005 391.172,107.435 C393.231,111.071 396.424,112.825 399.494,112.825 C404.1,112.825 407.827,109.557 410.962,102.662 C411.96,108.249 414.944,112.916 420.262,112.916 C423.931,112.916 426.971,110.763 429.525,106.236 C431.032,110.305 434.117,112.825 438.167,112.825 C442.864,112.825 446.158,109.505 448.527,105.29 C448.313,107.362 448.071,109.493 447.796,111.595 C447.092,117.165 446.068,124.006 444.396,127.538 C442.871,130.733 440.505,132.49 437.734,132.49 C433.732,132.49 430.713,128.804 430.713,123.913 C430.713,121.977 431.221,120.846 431.987,119.735 L432.718,118.668 L430.071,115.741 L428.877,116.639 C425.815,118.933 423.985,122.594 423.985,126.421 C423.985,133.243 429.534,138.785 436.35,138.785 C441.37,138.785 446.182,135.939 449.558,130.979 C452.954,125.969 454.941,118.74 456.405,106.019 C457.185,99.333 457.866,93.551 459.338,84.018 L459.749,81.496 C460.188,78.847 460.566,76.56 460.566,75.452 C460.566,73.035 459.035,72.174 457.724,72.174" fill="#81D5E2"/>
  </g>
  <g id="MOB_Text">
    <path d="M299.287,137.46 L291.465,157.884 C291.271,158.346 291.108,158.711 290.973,158.981 C290.837,159.25 290.692,159.442 290.538,159.558 C290.383,159.674 290.2,159.751 289.988,159.789 C289.775,159.827 289.495,159.846 289.148,159.846 C288.491,159.846 288.008,159.74 287.699,159.529 C287.39,159.317 287.081,158.808 286.772,158 L279.182,137.46 L279.182,158.102 C279.143,158.723 279.008,159.168 278.777,159.439 C278.545,159.711 278.1,159.846 277.444,159.846 L271.94,159.846 C271.283,159.846 270.858,159.711 270.665,159.44 C270.472,159.17 270.355,158.726 270.317,158.107 L270.317,120.447 C270.317,119.675 270.51,119.231 270.897,119.114 C271.283,118.999 271.63,118.94 271.94,118.94 L280.688,118.94 C281.461,118.94 281.963,119.018 282.195,119.172 C282.427,119.325 282.697,119.769 283.006,120.499 L290.364,139.481 L297.954,120.326 C298.186,119.749 298.418,119.374 298.65,119.2 C298.881,119.027 299.306,118.94 299.924,118.94 L308.673,118.94 C309.214,118.94 309.629,119.019 309.919,119.173 C310.208,119.327 310.353,119.752 310.353,120.447 L310.353,158.224 C310.391,158.996 310.238,159.45 309.89,159.585 C309.542,159.721 309.079,159.808 308.499,159.846 L300.967,159.846 C300.31,159.846 299.867,159.72 299.635,159.468 C299.403,159.217 299.287,158.741 299.287,158.043 z" fill="#7C4B22"/>
    <path d="M335.934,134.138 C335.798,132.681 335.479,131.241 334.978,129.818 C334.9,129.604 334.785,129.337 334.63,129.017 C334.475,128.698 334.263,128.378 333.993,128.057 C333.722,127.737 333.374,127.471 332.95,127.257 C332.525,127.043 332.003,126.937 331.385,126.937 C330.844,126.937 330.293,127.062 329.735,127.311 C329.174,127.56 328.663,128.102 328.199,128.938 C327.736,129.773 327.359,130.964 327.069,132.511 C326.78,134.059 326.634,136.13 326.634,138.726 C326.634,140.433 326.711,142.042 326.867,143.553 C327.02,145.065 327.281,146.38 327.649,147.501 C328.015,148.622 328.518,149.511 329.155,150.168 C329.792,150.826 330.593,151.156 331.559,151.156 C332.254,151.156 332.834,150.995 333.297,150.675 C333.761,150.355 334.138,149.982 334.427,149.555 C334.717,149.128 334.929,148.711 335.065,148.302 C335.2,147.893 335.287,147.599 335.326,147.421 C335.75,145.963 336.011,144.495 336.108,143.02 C336.204,141.544 336.233,140.06 336.195,138.566 C336.156,137.073 336.069,135.597 335.934,134.138 M347.463,148.23 C346.517,150.909 345.223,153.112 343.581,154.836 C341.94,156.562 340.047,157.827 337.904,158.635 C335.76,159.443 333.548,159.846 331.27,159.846 C328.643,159.846 326.277,159.36 324.172,158.388 C322.067,157.415 320.27,156.03 318.784,154.231 C317.296,152.433 316.148,150.267 315.336,147.734 C314.525,145.201 314.12,142.375 314.12,139.256 C314.12,135.99 314.563,133.1 315.453,130.585 C316.34,128.071 317.567,125.951 319.131,124.226 C320.696,122.501 322.549,121.19 324.694,120.29 C326.837,119.391 329.145,118.941 331.618,118.941 C333.973,118.941 336.156,119.364 338.164,120.207 C340.172,121.051 341.93,122.3 343.437,123.95 C344.944,125.603 346.16,127.659 347.087,130.117 C348.014,132.575 348.536,135.402 348.652,138.595 C348.805,142.339 348.41,145.55 347.463,148.23" fill="#7C4B22"/>
    <path d="M364.526,152.313 C365.066,152.352 365.472,152.371 365.743,152.371 L366.264,152.371 C368.041,152.371 369.286,151.919 370.002,151.016 C370.715,150.113 371.073,148.942 371.073,147.503 C371.073,146.655 370.986,145.862 370.812,145.125 C370.638,144.387 370.329,143.742 369.885,143.189 C369.441,142.635 368.862,142.193 368.147,141.861 C367.432,141.529 366.554,141.363 365.511,141.363 C365.317,141.363 365.134,141.373 364.961,141.391 C364.787,141.409 364.642,141.417 364.526,141.417 z M364.526,135.685 C365.93,135.762 367.023,135.636 367.803,135.305 C368.584,134.975 369.159,134.536 369.53,133.988 C369.9,133.441 370.133,132.848 370.231,132.209 C370.329,131.57 370.378,131.013 370.378,130.539 C370.378,129.846 370.29,129.217 370.115,128.652 C369.939,128.085 369.754,127.638 369.558,127.31 C369.169,126.763 368.711,126.37 368.183,126.133 C367.657,125.896 366.944,125.777 366.047,125.777 C365.736,125.777 365.482,125.786 365.287,125.804 C365.091,125.823 364.838,125.85 364.526,125.886 z M352.533,122.608 C352.533,122.006 352.59,121.489 352.707,121.056 C352.822,120.624 353.21,120.276 353.868,120.012 C354.564,119.711 355.85,119.459 357.728,119.25 C359.605,119.044 361.743,118.94 364.143,118.94 C367.046,118.94 369.561,119.082 371.691,119.364 C373.819,119.646 375.658,120.219 377.206,121.084 C378.675,121.912 379.837,122.984 380.688,124.3 C381.54,125.617 381.965,127.235 381.965,129.152 C381.965,131.183 381.424,132.895 380.343,134.287 C379.261,135.679 377.795,136.807 375.94,137.671 C375.747,137.785 375.544,137.888 375.332,137.982 C375.119,138.077 374.917,138.162 374.723,138.236 C374.917,138.274 375.109,138.312 375.302,138.349 C375.496,138.387 375.688,138.443 375.882,138.518 C377.118,138.857 378.2,139.365 379.127,140.042 C380.053,140.719 380.826,141.5 381.444,142.384 C382.062,143.267 382.516,144.227 382.806,145.261 C383.095,146.294 383.241,147.358 383.241,148.449 C383.241,150.706 382.611,152.699 381.354,154.429 C380.095,156.16 378.364,157.476 376.158,158.378 C374.532,159.018 372.792,159.422 370.934,159.591 C369.076,159.761 367.102,159.845 365.013,159.845 C362.73,159.845 360.611,159.77 358.657,159.62 C356.703,159.469 355.299,159.3 354.448,159.112 C353.557,158.923 353.016,158.604 352.822,158.152 C352.629,157.702 352.533,157.081 352.533,156.292 z" fill="#7C4B22"/>
  </g>
</svg>
